<?xml version="1.0" encoding="utf-8"?>
<!-- Generator: Adobe Illustrator 19.1.0, SVG Export Plug-In . SVG Version: 6.00 Build 0)  -->
<svg version="1.1" id="Layer_1" xmlns="http://www.w3.org/2000/svg" xmlns:xlink="http://www.w3.org/1999/xlink" x="0px" y="0px"
	 viewBox="-222.7 308.1 255.1 226.8" style="enable-background:new -222.7 308.1 255.1 226.8;" xml:space="preserve">
<style type="text/css">
	.st0{fill:#8B3F45;}
	.st1{fill:#FFFFFF;}
</style>
<rect x="-222.7" y="308.1" class="st0" width="255.1" height="226.8"/>
<path class="st1" d="M-178.5,486.7l-4.5-6.2l1.5-1.1l3.4,4.8l11.4-8.3l1,1.4L-178.5,486.7z M-183.2,456.9l3.7,7.9
	c2-1.2,2.2-3.1,1.3-5c-0.7-1.4-1.6-2.2-2.8-2.6l1.2-0.9c1.1,0,2.5,1.1,3.3,2.8c1.3,2.8,0.4,6-2.8,7.5c-2.9,1.3-6,0.5-7.4-2.4
	c-1.3-2.8,0.1-5.6,2.8-6.9C-183.6,457.1-183.4,457-183.2,456.9 M-181.1,465.4l-2.9-6.2c-1.5,0.9-1.8,2.6-1.1,4.2
	C-184.4,464.8-183,465.9-181.1,465.4"/>
<path class="st1" d="M-193.4,444l4.3-0.8l-1.2-6.1l-4.3,0.9l-0.3-1.6l10.7-2.1l0.3,1.6l-4.6,0.9l1.2,6l4.6-0.9l0.3,1.6l-10.6,2.1
	L-193.4,444z M-195.9,419.6l4.4,0.2l0.3-6.2l-4.4-0.2l0.1-1.6l10.8,0.5v1.7l-4.8-0.3l-0.3,6.2l4.8,0.2l-0.1,1.6l-10.9-0.5
	L-195.9,419.6z M-186.7,389.8l6.6,2l-0.5,1.5l-1-0.3c0.6,0.7,0.7,2.1,0.3,3.5c-0.8,2.6-2.6,3.8-4.7,3.1c-2.1-0.6-2.8-2.8-2.1-5.2
	c0.2-0.8,0.9-2.2,1.9-2.8l-0.7-0.2c-1.9-0.6-3.2,0.5-3.7,2.2c-0.4,1.3-0.1,2.7,0.5,3.6h-1.5c-0.8-0.9-1.1-2.6-0.6-4.2
	C-191.3,390.5-189.3,389.1-186.7,389.8 M-184.3,392.3c-0.8,0.2-1.6,1.3-2,2.6c-0.5,1.7-0.2,2.9,0.8,3.2s2-0.4,2.5-2.2
	c0.4-1.3,0.2-2.7-0.4-3.3C-183.4,392.6-184.3,392.3-184.3,392.3z M-176.8,379.6c-0.8-1.8-2.5-4.2-6.1-6.3l-0.6-0.3l3.5-6l7.9,4.6
	l1-1.7l4,2.3l-0.8,1.4l-2.5-1.5l-4.6,8l2.5,1.5l-0.8,1.4l-4-2.3L-176.8,379.6z M-172.9,372.9l-6.4-3.7l-1.9,3.2
	c2.9,1.9,4.8,4.4,5.3,5.4C-175.9,377.8-172.9,372.9-172.9,372.9z M-169,352.8l5.8,5.7l-1.4-10.1l1.1-1.2l7.8,7.7l-1.2,1.1l-5.8-5.7
	l1.5,10.2l-1.2,1.1l-7.8-7.6L-169,352.8z M-150.1,336.9l4.2,7l1.1-10.2l1.4-0.8l5.7,9.3l-1.4,0.9l-4.2-7l-1.1,10.2l-1.5,0.8
	l-5.7-9.3C-151.6,337.8-150.1,336.9-150.1,336.9z M-146.7,329.9c0.9,1.5,0.2,3.3-1.4,4.3c-1.6,1-3.5,0.8-4.4-0.7l1.1-1.1
	c0.5,0.7,1.4,1,2.4,0.3c1-0.6,1.1-1.5,0.8-2.3C-148.2,330.4-146.7,329.9-146.7,329.9z M-111.5,333l-2.2-15.8l7.9-1.1l0.3,1.8
	l-6.2,0.9l0.6,4.5l2.7-0.4c2.9-0.4,5.1,1.3,5.5,4c0.4,2.9-1.4,5-4.2,5.4C-107.1,332.3-111.5,333-111.5,333z M-107.1,330.5
	c1.6-0.2,2.6-1.6,2.4-3.3c-0.2-1.7-1.6-2.7-3.2-2.5l-3,0.4l0.8,5.8C-110.1,330.9-107.1,330.5-107.1,330.5z M-91.1,320.5l1.9,0.2
	l2.8,8.9l4.3-8.2l1.9,0.2l-7.9,14.9l-1.9-0.2l2.5-4.7L-91.1,320.5z M-66.8,324.6l1.5,0.5l-1.5,4.5l6.4-2.9l2.3,0.8l-7.2,3.2l4.2,7.3
	l-2.5-0.9l-3.6-6.3l-1.6,4.6l-1.5-0.5L-66.8,324.6z M-40.6,341.3l-3.7,5.9l-1.3-0.8l0.6-0.9c-0.9,0.3-2.3,0.1-3.4-0.6
	c-2.3-1.4-2.9-3.5-1.8-5.3c1.1-1.8,3.4-1.9,5.5-0.6c0.7,0.4,1.9,1.4,2.2,2.5l0.4-0.6c1.1-1.7,0.4-3.2-1.1-4.1
	c-1.2-0.7-2.6-0.9-3.6-0.5l0.4-1.5c1-0.5,2.8-0.4,4.2,0.5C-40,336.7-39.1,339-40.6,341.3 M-43.6,343c0-0.9-0.8-1.8-2-2.6
	c-1.5-0.9-2.8-1-3.3-0.1c-0.5,0.8-0.1,2,1.5,3c1.2,0.7,2.5,0.9,3.3,0.5L-43.6,343z M-12.6,366.4l-2.2-3l-7.3,5.4l-1-1.3l7.3-5.4
	l-2.2-3l1.5-1.1l5.4,7.4L-12.6,366.4z M-2.3,381.5c1.2,2.7-0.1,6-3,7.3c-3,1.3-6.2-0.1-7.4-2.8c-1.2-2.7,0.1-6,3-7.3
	C-6.7,377.4-3.4,378.8-2.3,381.5 M-9,380.2c-2.1,0.9-2.9,3.1-2.1,5.1c0.9,2,3,2.9,5.1,2c2.1-0.9,2.9-3.1,2.1-5.1
	C-4.8,380.1-6.9,379.3-9,380.2"/>
<path class="st1" d="M3.9,402.2l-4.3,0.7l1,6.1l4.3-0.7l0.3,1.6l-10.8,1.8l-0.2-1.7l4.6-0.7l-0.9-6.1l-4.7,0.8l-0.3-1.7l10.8-1.7
	L3.9,402.2z M5.8,425.1l-0.1,1.6l-4.8-0.3l4.4,5.5l-0.2,2.4l-4.9-6.2l-6,5.9l0.2-2.7l5.3-5l-4.9-0.4l0.1-1.6L5.8,425.1z M-4,454.6
	l-6.6-2.1l0.5-1.5l1,0.3c-0.6-0.8-0.7-2.2-0.2-3.5c0.8-2.6,2.6-3.7,4.7-3.1c2,0.6,2.7,2.8,2,5.2c-0.2,0.8-0.9,2.2-1.9,2.7l0.7,0.2
	c1.9,0.6,3.2-0.4,3.7-2.1c0.4-1.3,0.2-2.7-0.4-3.6H1c0.8,0.9,1.1,2.6,0.5,4.2C0.6,454-1.4,455.4-4,454.6 M-6.4,452.1
	c0.8-0.2,1.6-1.3,2-2.6c0.5-1.7,0.2-2.9-0.7-3.2c-1-0.3-2,0.4-2.6,2.2c-0.4,1.3-0.3,2.7,0.4,3.3L-6.4,452.1L-6.4,452.1z
	 M-10.1,475.9l-9.4-5.5l0.8-1.4l3,1.7l1.2-2.1l-1.8-3.8l1-1.7l2,4.2c1.2-0.9,2.7-1.1,4.1-0.3c1.9,1.1,2.3,3.4,1.2,5.3L-10.1,475.9z
	 M-9.5,471.2c0.6-1.1,0.3-2.3-0.6-2.8c-1-0.6-2.1-0.1-2.7,0.9l-1.3,2.3l3.3,1.9L-9.5,471.2L-9.5,471.2z M-40.3,486.9l9.3,12.5
	l-1.3,1l-0.8-1c0.2,0.9-0.5,2.3-1.9,3.4c-2.4,1.8-5.8,1.4-7.8-1.3c-2-2.7-1.3-6.1,1.1-7.9c1.4-1.1,3-1.3,3.8-0.8l-3.6-4.8
	L-40.3,486.9L-40.3,486.9z M-36,501.3c1.3-1,2-2.5,1.5-3.7l-2.2-3c-1.1-0.8-2.7-0.6-4,0.4c-1.8,1.4-2.3,3.6-0.9,5.5
	C-40.1,502.4-37.8,502.6-36,501.3"/>
<path class="st1" d="M-61.5,512.4l-2.7-6.4l1.5-0.6l0.4,1c0.2-0.9,1.2-1.9,2.5-2.4c2.5-1,4.5-0.4,5.4,1.6c0.8,2-0.4,3.9-2.7,4.9
	c-0.8,0.3-2.2,0.7-3.3,0.3l0.3,0.6c0.8,1.9,2.4,2.2,4,1.5c1.3-0.5,2.2-1.6,2.5-2.6l1,1.2c-0.2,1.2-1.3,2.5-2.9,3.2
	C-58,515.5-60.4,514.9-61.5,512.4 M-61.2,508.9c0.7,0.5,2,0.4,3.2-0.1c1.6-0.7,2.4-1.7,2-2.7c-0.4-0.9-1.6-1.3-3.3-0.5
	c-1.3,0.5-2.2,1.5-2.3,2.4L-61.2,508.9L-61.2,508.9z M-83.3,525.5c1.3-1.4,3.2-1.7,4.9-2.6c2.2-1.1,2.7-3.1,2.4-4.8
	c-0.8,1.8-2.6,2.5-3.9,2.7c-2.9,0.5-5.4-1.3-5.9-4.4c-0.5-3.1,1.4-5.9,4.4-6.4c3.3-0.5,6.1,1.5,6.9,6.4c0.6,3.6-0.2,6.2-2.3,7.6
	c-1.7,1-4,1.6-5.6,2.8L-83.3,525.5z M-84.2,516c0.3,2.1,2.1,3.4,4.3,3c1.6-0.3,3.2-1.6,3.5-3.4c-0.5-2.7-2.4-4.1-4.6-3.8
	C-83.2,512.2-84.5,513.8-84.2,516 M-104.2,522.1c-3-0.3-5.3-2.9-5-6.2c0.3-3.2,3.1-5.4,6-5.2c3,0.3,5.3,2.9,5,6.2
	S-101.3,522.4-104.2,522.1 M-99.9,516.8c0.2-2.3-1.3-4.1-3.5-4.3s-4,1.3-4.2,3.6c-0.2,2.3,1.3,4.1,3.5,4.3
	C-101.9,520.5-100.1,519.1-99.9,516.8"/>
<path class="st1" d="M-130.4,514.1l3.5,1.2l2.9-8.7l1.6,0.5l-2.9,8.7l3.5,1.2l-0.5,1.6l-8.7-2.8L-130.4,514.1z M-148.9,502l3.7-5.9
	l1.4,0.8l-0.6,0.9c0.9-0.3,2.3-0.1,3.4,0.6c2.3,1.4,3,3.5,1.8,5.3c-1.1,1.8-3.4,1.9-5.5,0.6c-0.7-0.4-1.9-1.4-2.2-2.5l-0.4,0.6
	c-1.1,1.7-0.4,3.2,1.1,4.1c1.2,0.7,2.6,0.9,3.6,0.5l-0.4,1.5c-1,0.5-2.8,0.4-4.2-0.5C-149.4,506.6-150.3,504.3-148.9,502
	 M-145.9,500.3c0,0.9,0.8,1.9,2,2.6c1.5,0.9,2.8,1,3.3,0.1c0.5-0.8,0.1-2-1.5-3c-1.2-0.7-2.5-0.9-3.3-0.5L-145.9,500.3L-145.9,500.3
	z M-96.5,418.2c3.8-2.7,9.2-9.1,7.6-14.2c-2.3-7.2-11-6.5-16.7-4.6c-4.6,1.5-9.9,3.6-13.6,4.8c4,9,7.6,17.4,8.4,20
	c0.9,2.7,2.8,11.4,4.8,21c3.4-1.2,7.5-2.1,11.2-3.3c9.8-3.2,17.7-9.4,14.8-18.4C-82.1,417.2-91.2,417-96.5,418.2 M-94.6,406.7
	c1.5,4.5,0,9.2-4.3,12.1c-2.3,0.8-5.7,1.5-9.1,2c-1-3.6-2.7-9.9-4.4-16.8c2-1.5,4.8-2.8,6-3.2C-100.9,399-96.2,401.6-94.6,406.7
	 M-87.3,436.8c-3.5,3.5-8.6,4-13.1,4.1c-3.1-7.7-5.7-14.6-6.7-17.4c2.9-1.5,5.2-2.6,7.5-3.4c6.4-2.1,10.9,0,13,6.5
	C-85.5,429.8-85,434.2-87.3,436.8 M-66.7,425.2c-1.9,0.6-2.8,2.4-2.2,4.3c0.6,1.9,2.4,2.8,4.3,2.2c1.9-0.6,2.8-2.4,2.2-4.3
	C-63,425.5-64.8,424.6-66.7,425.2"/>
</svg>
